<?xml version="1.0" encoding="utf-8"?>
<!-- Generator: Adobe Illustrator 24.0.2, SVG Export Plug-In . SVG Version: 6.00 Build 0)  -->
<svg version="1.1" id="Ebene_1" xmlns="http://www.w3.org/2000/svg" xmlns:xlink="http://www.w3.org/1999/xlink" x="0px" y="0px"
	 viewBox="0 0 500 500" style="enable-background:new 0 0 500 500;" xml:space="preserve">
<style type="text/css">
	.st0{fill:#FFFFFF;}
</style>
<path class="st0" d="M90,339.4c2.7,0,5.3-0.1,8-0.4c2.7-0.2,5.3-0.6,7.9-1.1c2.6-0.5,5.2-1.1,7.8-1.8c2.6-0.7,5.1-1.6,7.6-2.5
	c2.5-1,4.9-2,7.3-3.2s4.7-2.4,7-3.8c2.3-1.4,4.5-2.9,6.7-4.5c2.2-1.6,4.2-3.3,6.2-5c2-1.8,3.9-3.6,5.8-5.6c1.8-1.9,3.6-4,5.2-6.1
	c1.6-2.1,3.2-4.3,4.7-6.5c1.5-2.2,2.8-4.5,4-6.9c1.2-2.4,2.4-4.8,3.4-7.2c1-2.5,1.9-5,2.7-7.5c0.8-2.6,1.5-5.1,2.1-7.7
	c0.6-2.6,1-5.2,1.3-7.9h61.8V377c0,0.7,0.1,1.4,0.2,2.1c0.1,0.7,0.3,1.4,0.6,2c0.3,0.7,0.6,1.3,1,1.9c0.4,0.6,0.8,1.1,1.4,1.7
	c0.5,0.5,1.1,1,1.7,1.4c0.6,0.4,1.2,0.7,1.9,1c0.7,0.3,1.3,0.5,2,0.6c0.7,0.1,1.4,0.2,2.1,0.2h72.7c0.2,1.8,0.5,3.7,0.9,5.5
	c0.3,1.8,0.7,3.6,1.2,5.4c0.5,1.8,1,3.6,1.5,5.4c0.6,1.8,1.2,3.5,1.9,5.2c0.7,1.7,1.4,3.4,2.2,5.1c0.8,1.7,1.6,3.3,2.5,5
	s1.8,3.2,2.8,4.8c1,1.6,2,3.1,3.1,4.6c1.1,1.5,2.2,3,3.4,4.4c1.2,1.4,2.4,2.8,3.7,4.2c1.3,1.4,2.6,2.7,3.9,4
	c1.4,1.3,2.7,2.5,4.2,3.7s2.9,2.3,4.4,3.4c1.5,1.1,3,2.1,4.6,3.1c1.6,1,3.2,1.9,4.8,2.8c1.6,0.9,3.3,1.7,5,2.5
	c1.7,0.8,3.4,1.5,5.1,2.2c1.7,0.7,3.5,1.3,5.2,1.9s3.5,1.1,5.3,1.6c1.8,0.5,3.6,0.9,5.4,1.2s3.7,0.6,5.5,0.9
	c1.8,0.2,3.7,0.4,5.5,0.5c1.9,0.1,3.7,0.2,5.6,0.2c1.9,0,3.7-0.1,5.6-0.2c1.9-0.1,3.7-0.3,5.5-0.5c1.8-0.2,3.7-0.5,5.5-0.9
	c1.8-0.3,3.6-0.8,5.4-1.2c1.8-0.5,3.6-1,5.3-1.5s3.5-1.2,5.2-1.9c1.7-0.7,3.4-1.4,5.1-2.2c1.7-0.8,3.3-1.6,5-2.5
	c1.6-0.9,3.2-1.8,4.8-2.8c1.6-1,3.1-2,4.6-3.1c1.5-1.1,3-2.2,4.4-3.4c1.4-1.2,2.8-2.4,4.2-3.7c1.4-1.3,2.7-2.6,3.9-3.9
	c1.3-1.4,2.5-2.7,3.7-4.2c1.2-1.4,2.3-2.9,3.4-4.4c1.1-1.5,2.1-3,3.1-4.6c1-1.6,1.9-3.2,2.8-4.8c0.9-1.6,1.7-3.3,2.5-5
	c0.8-1.7,1.5-3.4,2.2-5.1c0.7-1.7,1.3-3.5,1.9-5.2c0.6-1.8,1.1-3.6,1.6-5.3c0.5-1.8,0.9-3.6,1.2-5.4c0.3-1.8,0.6-3.7,0.9-5.5
	c0.2-1.8,0.4-3.7,0.5-5.5c0.1-1.9,0.2-3.7,0.2-5.6s-0.1-3.7-0.2-5.6c-0.1-1.9-0.3-3.7-0.5-5.5c-0.2-1.8-0.5-3.7-0.9-5.5
	c-0.3-1.8-0.8-3.6-1.2-5.4c-0.5-1.8-1-3.6-1.6-5.3c-0.6-1.8-1.2-3.5-1.9-5.2c-0.7-1.7-1.4-3.4-2.2-5.1c-0.8-1.7-1.6-3.3-2.5-5
	c-0.9-1.6-1.8-3.2-2.8-4.8c-1-1.6-2-3.1-3.1-4.6c-1.1-1.5-2.2-3-3.4-4.4c-1.2-1.4-2.4-2.8-3.7-4.2c-1.3-1.4-2.6-2.7-3.9-3.9
	c-1.4-1.3-2.8-2.5-4.2-3.7c-1.4-1.2-2.9-2.3-4.4-3.4c-1.5-1.1-3-2.1-4.6-3.1c-1.6-1-3.2-1.9-4.8-2.8c-1.6-0.9-3.3-1.7-5-2.5
	c-1.7-0.8-3.4-1.5-5.1-2.2c-1.7-0.7-3.5-1.3-5.2-1.9c-1.8-0.6-3.6-1.1-5.3-1.5c-1.8-0.5-3.6-0.9-5.4-1.2c-1.8-0.3-3.7-0.6-5.5-0.9
	c-1.8-0.2-3.7-0.4-5.5-0.5s-3.7-0.2-5.6-0.2c-1.9,0-3.7,0.1-5.6,0.2c-1.9,0.1-3.7,0.3-5.5,0.5c-1.8,0.2-3.7,0.5-5.5,0.9
	c-1.8,0.3-3.6,0.8-5.4,1.2c-1.8,0.5-3.6,1-5.3,1.6s-3.5,1.2-5.2,1.9c-1.7,0.7-3.4,1.4-5.1,2.2c-1.7,0.8-3.3,1.6-5,2.5
	c-1.6,0.9-3.2,1.8-4.8,2.8c-1.6,1-3.1,2-4.6,3.1c-1.5,1.1-3,2.2-4.4,3.4s-2.8,2.4-4.2,3.7c-1.3,1.3-2.7,2.6-3.9,4
	c-1.3,1.4-2.5,2.8-3.7,4.2c-1.2,1.4-2.3,2.9-3.4,4.4c-1.1,1.5-2.1,3-3.1,4.6c-1,1.6-1.9,3.2-2.8,4.8c-0.9,1.6-1.7,3.3-2.5,5
	c-0.8,1.7-1.5,3.4-2.2,5.1c-0.7,1.7-1.3,3.5-1.9,5.2c-0.6,1.8-1.1,3.6-1.5,5.4c-0.5,1.8-0.9,3.6-1.2,5.4c-0.3,1.8-0.6,3.7-0.9,5.5
	h-61.8V135.4h57.4c0.2,1.8,0.5,3.7,0.9,5.5c0.3,1.8,0.7,3.6,1.2,5.4c0.5,1.8,1,3.6,1.5,5.4c0.6,1.8,1.2,3.5,1.9,5.2
	c0.7,1.7,1.4,3.4,2.2,5.1c0.8,1.7,1.6,3.3,2.5,5c0.9,1.6,1.8,3.2,2.8,4.8c1,1.6,2,3.1,3.1,4.6c1.1,1.5,2.2,3,3.4,4.4
	c1.2,1.4,2.4,2.8,3.7,4.2c1.3,1.4,2.6,2.7,3.9,3.9c1.4,1.3,2.7,2.5,4.2,3.7c1.4,1.2,2.9,2.3,4.4,3.4c1.5,1.1,3,2.1,4.6,3.1
	c1.6,1,3.2,1.9,4.8,2.8c1.6,0.9,3.3,1.7,5,2.5c1.7,0.8,3.4,1.5,5.1,2.2c1.7,0.7,3.5,1.3,5.2,1.9c1.8,0.6,3.5,1.1,5.3,1.6
	c1.8,0.5,3.6,0.9,5.4,1.2c1.8,0.4,3.7,0.6,5.5,0.9c1.8,0.2,3.7,0.4,5.5,0.5c1.9,0.1,3.7,0.2,5.6,0.2c1.9,0,3.7-0.1,5.6-0.2
	c1.8-0.1,3.7-0.3,5.5-0.5c1.8-0.2,3.7-0.5,5.5-0.9c1.8-0.3,3.6-0.8,5.4-1.2s3.6-1,5.3-1.5c1.8-0.6,3.5-1.2,5.2-1.9
	c1.7-0.7,3.4-1.4,5.1-2.2c1.7-0.8,3.3-1.6,5-2.5c1.6-0.9,3.2-1.8,4.8-2.8c1.6-1,3.1-2,4.6-3.1c1.5-1.1,3-2.2,4.4-3.4
	c1.4-1.2,2.8-2.4,4.2-3.7c1.4-1.3,2.7-2.6,3.9-3.9c1.3-1.4,2.5-2.8,3.7-4.2c1.2-1.4,2.3-2.9,3.4-4.4s2.1-3,3.1-4.6
	c1-1.6,1.9-3.2,2.8-4.8s1.7-3.3,2.5-5s1.5-3.4,2.2-5.1c0.7-1.7,1.3-3.5,1.9-5.2c0.6-1.8,1.1-3.6,1.6-5.3c0.5-1.8,0.9-3.6,1.2-5.4
	c0.3-1.8,0.6-3.7,0.9-5.5c0.2-1.8,0.4-3.7,0.5-5.6c0.1-1.9,0.2-3.7,0.2-5.6s-0.1-3.7-0.2-5.6s-0.3-3.7-0.5-5.6
	c-0.2-1.8-0.5-3.7-0.9-5.5c-0.3-1.8-0.8-3.6-1.2-5.4c-0.5-1.8-1-3.6-1.6-5.4c-0.6-1.8-1.2-3.5-1.9-5.2c-0.7-1.7-1.4-3.4-2.2-5.1
	c-0.8-1.7-1.6-3.3-2.5-5c-0.9-1.6-1.8-3.2-2.8-4.8c-1-1.6-2-3.1-3.1-4.6c-1.1-1.5-2.2-3-3.4-4.4c-1.2-1.4-2.4-2.8-3.7-4.2
	c-1.3-1.4-2.6-2.7-3.9-3.9c-1.4-1.3-2.7-2.5-4.2-3.7c-1.4-1.2-2.9-2.3-4.4-3.4c-1.5-1.1-3-2.1-4.6-3.1c-1.6-1-3.2-1.9-4.8-2.8
	c-1.6-0.9-3.3-1.7-5-2.5c-1.7-0.8-3.4-1.5-5.1-2.2c-1.7-0.7-3.5-1.3-5.2-1.9c-1.8-0.6-3.6-1.1-5.3-1.6c-1.8-0.5-3.6-0.9-5.4-1.2
	c-1.8-0.3-3.7-0.6-5.5-0.9c-1.8-0.2-3.7-0.4-5.5-0.5c-1.9-0.1-3.7-0.2-5.6-0.2c-1.9,0-3.7,0.1-5.6,0.2c-1.9,0.1-3.7,0.3-5.5,0.5
	s-3.7,0.5-5.5,0.9c-1.8,0.3-3.6,0.8-5.4,1.2c-1.8,0.5-3.6,1-5.3,1.6s-3.5,1.2-5.2,1.9c-1.7,0.7-3.4,1.4-5.1,2.2
	c-1.7,0.8-3.3,1.6-5,2.5c-1.6,0.9-3.2,1.8-4.8,2.8c-1.6,1-3.1,2-4.6,3.1c-1.5,1.1-3,2.2-4.4,3.4c-1.4,1.2-2.8,2.4-4.2,3.7
	c-1.3,1.3-2.7,2.6-3.9,3.9c-1.3,1.4-2.5,2.8-3.7,4.2c-1.2,1.4-2.3,2.9-3.4,4.4c-1.1,1.5-2.1,3-3.1,4.6c-1,1.6-1.9,3.2-2.8,4.8
	c-0.9,1.6-1.7,3.3-2.5,5c-0.8,1.7-1.5,3.4-2.2,5.1c-0.7,1.7-1.3,3.5-1.9,5.2c-0.6,1.8-1.1,3.6-1.5,5.4s-0.9,3.6-1.2,5.4
	s-0.6,3.7-0.9,5.5h-68.3c-0.7,0-1.4,0.1-2.1,0.2c-0.7,0.1-1.4,0.3-2,0.6c-0.7,0.3-1.3,0.6-1.9,1c-0.6,0.4-1.1,0.8-1.7,1.4
	c-0.5,0.5-1,1.1-1.4,1.7c-0.4,0.6-0.7,1.2-1,1.9c-0.3,0.7-0.5,1.3-0.6,2s-0.2,1.4-0.2,2.1v115.3h-61.8c-0.3-2.8-0.8-5.6-1.4-8.3
	c-0.6-2.8-1.4-5.5-2.2-8.2s-1.9-5.3-3-7.9c-1.1-2.6-2.4-5.1-3.7-7.6s-2.9-4.9-4.5-7.2s-3.3-4.6-5.1-6.7c-1.8-2.2-3.7-4.2-5.7-6.2
	c-2-2-4.1-3.9-6.3-5.7c-2.2-1.8-4.5-3.5-6.8-5c-2.3-1.6-4.8-3-7.3-4.3c-2.5-1.3-5-2.5-7.6-3.6c-2.6-1.1-5.3-2.1-8-2.9
	c-2.7-0.8-5.4-1.5-8.2-2.1c-2.8-0.6-5.6-1-8.4-1.3c-2.8-0.3-5.6-0.5-8.4-0.5c-2.8,0-5.6,0.1-8.5,0.3s-5.6,0.6-8.4,1.1
	c-2.8,0.5-5.5,1.1-8.2,1.9c-2.7,0.8-5.4,1.7-8,2.7c-2.6,1-5.2,2.2-7.7,3.4c-2.5,1.3-5,2.7-7.4,4.2c-2.4,1.5-4.7,3.1-6.9,4.8
	c-2.2,1.7-4.4,3.6-6.4,5.5c-2.1,1.9-4,4-5.9,6.1c-1.9,2.1-3.6,4.3-5.3,6.6c-1.7,2.3-3.2,4.7-4.6,7.1c-1.4,2.4-2.7,4.9-3.9,7.5
	c-1.2,2.6-2.3,5.2-3.2,7.8c-0.9,2.7-1.8,5.4-2.4,8.1c-0.7,2.7-1.2,5.5-1.7,8.3c-0.4,2.8-0.7,5.6-0.9,8.4c-0.2,2.8-0.2,5.6-0.1,8.5
	c0.1,2.8,0.4,5.6,0.8,8.4c0.4,2.8,0.9,5.6,1.6,8.3c0.7,2.8,1.4,5.5,2.3,8.1c0.9,2.7,1.9,5.3,3.1,7.9s2.4,5.1,3.8,7.5
	s2.9,4.8,4.5,7.1c1.6,2.3,3.4,4.5,5.2,6.7c1.8,2.1,3.8,4.2,5.8,6.2c2,2,4.2,3.8,6.4,5.6c2.2,1.8,4.5,3.4,6.9,4.9
	c2.4,1.5,4.8,3,7.3,4.2c2.5,1.3,5.1,2.5,7.7,3.5c2.6,1.1,5.3,2,8,2.8c2.7,0.8,5.4,1.5,8.2,2c2.8,0.5,5.6,0.9,8.4,1.2
	C84.4,339.3,87.2,339.4,90,339.4z"/>
</svg>
