<svg xmlns="http://www.w3.org/2000/svg" xmlns:xlink="http://www.w3.org/1999/xlink" width="500" zoomAndPan="magnify" viewBox="0 0 375 374.999991" height="500" preserveAspectRatio="xMidYMid meet" version="1.0"><defs><clipPath id="a30cdd6527"><path d="M 136.40625 0 L 238.40625 0 L 238.40625 375 L 136.40625 375 Z M 136.40625 0 " clip-rule="nonzero"/></clipPath></defs><g clip-path="url(#a30cdd6527)"><path fill="#f5f5f7" d="M 187.539062 136.273438 C 159.316406 136.273438 136.40625 159.191406 136.40625 187.5 C 136.40625 215.808594 159.316406 238.726562 187.539062 238.726562 C 215.761719 238.726562 238.671875 215.808594 238.671875 187.5 C 238.671875 159.191406 215.761719 136.273438 187.539062 136.273438 Z M 187.539062 272.390625 C 159.316406 272.390625 136.40625 295.34375 136.40625 323.617188 C 136.40625 351.890625 159.316406 374.84375 187.539062 374.84375 C 215.761719 374.84375 238.671875 351.890625 238.671875 323.617188 C 238.671875 295.34375 215.761719 272.390625 187.539062 272.390625 Z M 238.671875 51.382812 C 238.671875 79.691406 215.761719 102.609375 187.539062 102.609375 C 159.316406 102.609375 136.40625 79.691406 136.40625 51.382812 C 136.40625 23.109375 159.316406 0.15625 187.539062 0.15625 C 215.761719 0.15625 238.671875 23.109375 238.671875 51.382812 " fill-opacity="1" fill-rule="nonzero"/></g></svg>